<svg version="1.2" xmlns="http://www.w3.org/2000/svg" viewBox="0 0 2400 2400" width="512" height="512"><style>.a{fill:#fff}.b{fill:#9ac5db}.c{fill:#1976d2}</style><path class="a" d="m1200 2400c-663.6 0-1200-536.4-1200-1200 0-663.6 536.4-1200 1200-1200 663.6 0 1200 536.4 1200 1200 0 663.6-536.4 1200-1200 1200z"/><path fill-rule="evenodd" class="b" d="m1200 0c663.6 0 1200 536.4 1200 1200 0 445-241.2 832.8-600.3 1040l-1200.5-2079.4c176.6-102.2 381.8-160.6 600.8-160.6z"/><path fill-rule="evenodd" class="c" d="m160.8 1800c-331.8-574.7-135.5-1307.4 439.2-1639.2 574.7-331.8 1307.4-135.5 1639.2 439.2 331.8 574.7 135.5 1307.4-439.2 1639.2-574.7 331.8-1307.4 135.5-1639.2-439.2zm1466.2 139.6c409-236.1 548.7-757.6 312.6-1166.6-236.1-409-757.6-548.7-1166.6-312.6-409 236.1-548.7 757.6-312.6 1166.6 236.1 409 757.6 548.7 1166.6 312.6z"/></svg>