<svg version="1.2" xmlns="http://www.w3.org/2000/svg" viewBox="0 0 2400 2400" width="512" height="512"><style>.a{fill:#616161}.b{fill:#212121}.c{fill:#eee}.d{fill:#fff}</style><path class="a" d="m1200 2064c-477.8 0-864-386.2-864-864 0-477.8 386.2-864 864-864 477.8 0 864 386.2 864 864 0 477.8-386.2 864-864 864z"/><path class="b" d="m1200 1680c-265.4 0-480-214.6-480-480 0-265.4 214.6-480 480-480 265.4 0 480 214.6 480 480 0 265.4-214.6 480-480 480z"/><path fill-rule="evenodd" class="c" d="m1200 2400c-663.6 0-1200-536.4-1200-1200 0-663.6 536.4-1200 1200-1200 663.6 0 1200 536.4 1200 1200 0 663.6-536.4 1200-1200 1200zm864-1200c0-477.8-386.2-864-864-864-477.8 0-864 386.2-864 864 0 477.8 386.2 864 864 864 477.8 0 864-386.2 864-864z"/><path fill-rule="evenodd" class="d" d="m1200 2400c-663.6 0-1200-536.4-1200-1200 0-663.6 536.4-1200 1200-1200 663.6 0 1200 536.4 1200 1200 0 663.6-536.4 1200-1200 1200zm1176-1200c0-650.3-525.7-1176-1176-1176-650.3 0-1176 525.7-1176 1176 0 650.3 525.7 1176 1176 1176 650.3 0 1176-525.7 1176-1176z"/><path class="b" d="m1200 2400c-663.6 0-1200-536.4-1200-1200 0-663.6 536.4-1200 1200-1200 663.6 0 1200 536.4 1200 1200 0 663.6-536.4 1200-1200 1200z"/></svg>