<svg version="1.2" xmlns="http://www.w3.org/2000/svg" viewBox="0 0 2400 2400" width="512" height="512"><style>.a{fill:#212121}.b{fill:#fff}.c{fill:#9ac5db}.d{fill:#1976d2}</style><path class="a" d="m1200 1627c-236.1 0-427-190.9-427-427 0-236.1 190.9-427 427-427 236.1 0 427 190.9 427 427 0 236.1-190.9 427-427 427z"/><path fill-rule="evenodd" class="b" d="m1200 2400c-663.6 0-1200-536.4-1200-1200 0-444.9 241.1-832.6 599.9-1039.8l386.7 669.7c-127.8 73.8-213.6 211.8-213.6 370.1 0 236.1 190.9 427 427 427 77.9 0 150.9-20.8 213.8-57.1l386.7 669.7c-176.6 102-381.6 160.4-600.5 160.4zm1025.3-1824.6q14.9 24.5 28.6 49.6z"/><path fill-rule="evenodd" class="c" d="m1200 0c663.6 0 1200 536.4 1200 1200 0 444.9-241.1 832.6-599.9 1039.8l-386.7-669.7c127.8-73.8 213.6-211.8 213.6-370.1 0-236.1-190.9-427-427-427-77.9 0-150.9 20.8-213.8 57.1l-386.7-669.7c176.6-102 381.6-160.4 600.5-160.4zm-1025.3 1824.6q-14.9-24.5-28.6-49.6z"/><path class="a" d="m496.3 430.7l389.3-224.8 1026.5 1778-389.3 224.8z"/><path class="a" d="m1040.8 1041.1l317.9 317.8-763.6 763.7-317.9-317.9z"/><path fill-rule="evenodd" class="d" d="m160.8 1800c-331.8-574.7-135.5-1307.4 439.2-1639.2 574.7-331.8 1307.4-135.5 1639.2 439.2 331.8 574.7 135.5 1307.4-439.2 1639.2-574.7 331.8-1307.4 135.5-1639.2-439.2zm1466.2 139.6c409-236.1 548.7-757.6 312.6-1166.6-236.1-409-757.6-548.7-1166.6-312.6-409 236.1-548.7 757.6-312.6 1166.6 236.1 409 757.6 548.7 1166.6 312.6z"/></svg>